ModelForces
version=1
nRows=4
nColumns=206
inDegrees=no

This file contains the forces exerted on a model during a simulation.

A force is a generalized force, meaning that it can be either a force (N) or a torque (Nm).

Units are S.I. units (second, meters, Newtons, ...)
Angles are in degrees.

endheader
time	glut_med1_r	glut_med2_r	glut_med3_r	glut_min1_r	glut_min2_r	glut_min3_r	semimem_r	semiten_r	bifemlh_r	bifemsh_r	sar_r	add_long_r	add_brev_r	add_mag1_r	add_mag2_r	add_mag3_r	tfl_r	pect_r	grac_r	glut_max1_r	glut_max2_r	glut_max3_r	iliacus_r	psoas_r	quad_fem_r	gem_r	peri_r	rect_fem_r	vas_med_r	vas_int_r	vas_lat_r	med_gas_r	lat_gas_r	soleus_r	tib_post_r	flex_dig_r	flex_hal_r	tib_ant_r	per_brev_r	per_long_r	per_tert_r	ext_dig_r	ext_hal_r	glut_med1_l	glut_med2_l	glut_med3_l	glut_min1_l	glut_min2_l	glut_min3_l	semimem_l	semiten_l	bifemlh_l	bifemsh_l	sar_l	add_long_l	add_brev_l	add_mag1_l	add_mag2_l	add_mag3_l	tfl_l	pect_l	grac_l	glut_max1_l	glut_max2_l	glut_max3_l	iliacus_l	psoas_l	quad_fem_l	gem_l	peri_l	rect_fem_l	vas_med_l	vas_int_l	vas_lat_l	med_gas_l	lat_gas_l	soleus_l	tib_post_l	flex_dig_l	flex_hal_l	tib_ant_l	per_brev_l	per_long_l	per_tert_l	ext_dig_l	ext_hal_l	ercspn_r	ercspn_l	intobl_r	intobl_l	extobl_r	extobl_l	femur_lat_meniscii_l.femur_lat_l.force.X	femur_lat_meniscii_l.femur_lat_l.force.Y	femur_lat_meniscii_l.femur_lat_l.force.Z	femur_lat_meniscii_l.femur_lat_l.torque.X	femur_lat_meniscii_l.femur_lat_l.torque.Y	femur_lat_meniscii_l.femur_lat_l.torque.Z	femur_lat_meniscii_l.meniscus_lat_l.force.X	femur_lat_meniscii_l.meniscus_lat_l.force.Y	femur_lat_meniscii_l.meniscus_lat_l.force.Z	femur_lat_meniscii_l.meniscus_lat_l.torque.X	femur_lat_meniscii_l.meniscus_lat_l.torque.Y	femur_lat_meniscii_l.meniscus_lat_l.torque.Z	femur_med_meniscii_l.femur_med_l.force.X	femur_med_meniscii_l.femur_med_l.force.Y	femur_med_meniscii_l.femur_med_l.force.Z	femur_med_meniscii_l.femur_med_l.torque.X	femur_med_meniscii_l.femur_med_l.torque.Y	femur_med_meniscii_l.femur_med_l.torque.Z	femur_med_meniscii_l.meniscus_med_l.force.X	femur_med_meniscii_l.meniscus_med_l.force.Y	femur_med_meniscii_l.meniscus_med_l.force.Z	femur_med_meniscii_l.meniscus_med_l.torque.X	femur_med_meniscii_l.meniscus_med_l.torque.Y	femur_med_meniscii_l.meniscus_med_l.torque.Z	femur_lat_meniscii_r.femur_lat_r.force.X	femur_lat_meniscii_r.femur_lat_r.force.Y	femur_lat_meniscii_r.femur_lat_r.force.Z	femur_lat_meniscii_r.femur_lat_r.torque.X	femur_lat_meniscii_r.femur_lat_r.torque.Y	femur_lat_meniscii_r.femur_lat_r.torque.Z	femur_lat_meniscii_r.meniscus_lat_r.force.X	femur_lat_meniscii_r.meniscus_lat_r.force.Y	femur_lat_meniscii_r.meniscus_lat_r.force.Z	femur_lat_meniscii_r.meniscus_lat_r.torque.X	femur_lat_meniscii_r.meniscus_lat_r.torque.Y	femur_lat_meniscii_r.meniscus_lat_r.torque.Z	femur_med_meniscii_r.femur_med_r.force.X	femur_med_meniscii_r.femur_med_r.force.Y	femur_med_meniscii_r.femur_med_r.force.Z	femur_med_meniscii_r.femur_med_r.torque.X	femur_med_meniscii_r.femur_med_r.torque.Y	femur_med_meniscii_r.femur_med_r.torque.Z	femur_med_meniscii_r.meniscus_med_r.force.X	femur_med_meniscii_r.meniscus_med_r.force.Y	femur_med_meniscii_r.meniscus_med_r.force.Z	femur_med_meniscii_r.meniscus_med_r.torque.X	femur_med_meniscii_r.meniscus_med_r.torque.Y	femur_med_meniscii_r.meniscus_med_r.torque.Z	femur_med_tibia_l.tibia_upper_l.force.X	femur_med_tibia_l.tibia_upper_l.force.Y	femur_med_tibia_l.tibia_upper_l.force.Z	femur_med_tibia_l.tibia_upper_l.torque.X	femur_med_tibia_l.tibia_upper_l.torque.Y	femur_med_tibia_l.tibia_upper_l.torque.Z	femur_med_tibia_l.femur_med_l.force.X	femur_med_tibia_l.femur_med_l.force.Y	femur_med_tibia_l.femur_med_l.force.Z	femur_med_tibia_l.femur_med_l.torque.X	femur_med_tibia_l.femur_med_l.torque.Y	femur_med_tibia_l.femur_med_l.torque.Z	femur_lat_tibia_l.tibia_upper_l.force.X	femur_lat_tibia_l.tibia_upper_l.force.Y	femur_lat_tibia_l.tibia_upper_l.force.Z	femur_lat_tibia_l.tibia_upper_l.torque.X	femur_lat_tibia_l.tibia_upper_l.torque.Y	femur_lat_tibia_l.tibia_upper_l.torque.Z	femur_lat_tibia_l.femur_lat_l.force.X	femur_lat_tibia_l.femur_lat_l.force.Y	femur_lat_tibia_l.femur_lat_l.force.Z	femur_lat_tibia_l.femur_lat_l.torque.X	femur_lat_tibia_l.femur_lat_l.torque.Y	femur_lat_tibia_l.femur_lat_l.torque.Z	femur_med_tibia_r.tibia_upper_r.force.X	femur_med_tibia_r.tibia_upper_r.force.Y	femur_med_tibia_r.tibia_upper_r.force.Z	femur_med_tibia_r.tibia_upper_r.torque.X	femur_med_tibia_r.tibia_upper_r.torque.Y	femur_med_tibia_r.tibia_upper_r.torque.Z	femur_med_tibia_r.femur_med_r.force.X	femur_med_tibia_r.femur_med_r.force.Y	femur_med_tibia_r.femur_med_r.force.Z	femur_med_tibia_r.femur_med_r.torque.X	femur_med_tibia_r.femur_med_r.torque.Y	femur_med_tibia_r.femur_med_r.torque.Z	femur_lat_tibia_r.tibia_upper_r.force.X	femur_lat_tibia_r.tibia_upper_r.force.Y	femur_lat_tibia_r.tibia_upper_r.force.Z	femur_lat_tibia_r.tibia_upper_r.torque.X	femur_lat_tibia_r.tibia_upper_r.torque.Y	femur_lat_tibia_r.tibia_upper_r.torque.Z	femur_lat_tibia_r.femur_lat_r.force.X	femur_lat_tibia_r.femur_lat_r.force.Y	femur_lat_tibia_r.femur_lat_r.force.Z	femur_lat_tibia_r.femur_lat_r.torque.X	femur_lat_tibia_r.femur_lat_r.torque.Y	femur_lat_tibia_r.femur_lat_r.torque.Z	aACL_R	pACL_R	aPCL_R	pPCL_R	aMCL_R	mMCL_R	pMCL_R	aLCL_R	mLCL_R	pLCL_R	aPCL_L	pPCL_L	aMCL_L	aLCL_L	ground_prescribedForce_0_fx	ground_prescribedForce_0_fy	ground_prescribedForce_0_fz
      0.49543037	      7.59905202	      5.70096059	      6.10287152	      2.67475495	      3.19605717	      3.21431334	      8.91071763	      4.08959795	      8.30480722	      7.42417494	      1.54102388	      5.64857018	      0.00000000	      2.93692860	      2.46921956	      4.01535794	      4.07508387	      2.25211763	      1.56231863	      3.67877378	      5.59060520	      4.17372109	     22.71143897	     13.03863315	      3.64872165	      2.86463451	      4.13135640	     10.99033595	      6.89034201	      7.02419596	      9.00288499	      4.61181410	      2.33235972	      8.45882240	     11.21658620	      2.64529131	      2.20007375	     15.70323347	      3.82337839	      7.42601502	     10.84827931	      8.33478253	      2.19351509	      7.59905202	      5.70096059	      6.10287152	      2.67475495	      3.19605717	      3.21431334	      8.81973165	      4.11061331	      7.74485083	      7.25991527	      1.52874349	      5.64857018	      0.00000000	      2.93692860	      2.46921956	      4.01535794	      4.11427457	      2.25211763	      1.56809378	      3.67877378	      5.59060520	      4.17372109	     22.71143897	     13.03863315	      3.64872165	      2.86463451	      4.13135640	     10.75153846	      6.63458676	      7.61133332	      8.18397056	     14.14097026	      6.56612910	     31.40017575	     42.48188357	      2.76753478	      2.94365120	      8.51527389	      4.37212438	     12.53938030	      2.01702034	      5.32286361	      1.69088318	     25.15570517	     25.15570517	      9.05861256	      9.05861256	     26.85725771	     26.85725771	      2.76307435	     50.99597937	     -9.56042239	      5.21997485	     -0.02578839	      1.48581788	     -2.76307435	    -50.99597937	      9.56042239	     -1.74637766	      0.02558040	     -0.48301696	     -3.31599387	     20.97615968	     -3.40468921	      0.94473225	     -0.02138609	     -1.00501789	      3.31599387	    -20.97615968	      3.40468921	      0.28075727	      0.00368718	     -0.29758878	     26.97688023	     87.29700711	     18.11966705	     -9.66867556	      0.62095424	     11.40735488	    -26.97688023	    -87.29700711	    -18.11966705	      3.02342609	     -0.78473824	     -0.72471089	     45.59848487	     88.18640147	     -1.11670035	      2.27947182	     -0.92944443	     19.36857797	    -45.59848487	    -88.18640147	      1.11670035	     -1.49155530	      0.74841842	     -1.49111698	      0.00000000	      0.00000000	      0.00000000	      0.00000000	      0.00000000	      0.00000000	      0.00000000	      0.00000000	      0.00000000	      0.00000000	      0.00000000	      0.00000000	      0.00000000	      0.00000000	      0.00000000	      0.00000000	      0.00000000	      0.00000000	      0.00000000	      0.00000000	      0.00000000	      0.00000000	      0.00000000	      0.00000000	      0.00000000	      0.00000000	      0.00000000	      0.00000000	      0.00000000	      0.00000000	      0.00000000	      0.00000000	      0.00000000	      0.00000000	      0.00000000	      0.00000000	      0.00000000	      0.00000000	      0.00000000	      0.00000000	      0.00000000	      0.00000000	      0.00000000	      0.00000000	      0.00000000	      0.00000000	      0.00000000	      0.00000000	      8.42534481	     64.71366155	      0.00000000	      0.00000000	      0.00000000	      7.35617313	     22.79716602	      2.70840011	      0.00000000	      5.10193082	      0.00000000	      0.00000000	      0.00000001	      0.00000000	    110.00000000	      0.00000000	      0.00000000
      0.49695895	      7.59800816	      5.70024154	      6.10209222	      2.67443190	      3.19570771	      3.21387269	      8.90494378	      4.08772077	      8.29403311	      7.41480631	      1.52689590	      5.64784943	      0.00000000	      2.93656089	      2.46890304	      4.01478777	      4.07368937	      2.25184390	      1.56078060	      3.67831016	      5.58989850	      4.17318381	     22.71013512	     13.03716676	      3.64827138	      2.86442371	      4.13051937	     10.98043586	      6.88298167	      7.01224003	      8.98341075	      4.61851077	      2.33486878	      8.47113449	     11.18354745	      2.65665521	      2.18122205	     15.71317734	      3.83935952	      7.46036134	     10.86237750	      8.32531330	      2.20398665	      7.59800816	      5.70024154	      6.10209222	      2.67443190	      3.19570771	      3.21387269	      8.81821150	      4.11005405	      7.74358587	      7.25901881	      1.52855970	      5.64784943	      0.00000000	      2.93656089	      2.46890304	      4.01478777	      4.11392193	      2.25184390	      1.56790199	      3.67831016	      5.58989850	      4.17318381	     22.71013512	     13.03716676	      3.64827138	      2.86442371	      4.13051937	     10.74981680	      6.63373084	      7.61033242	      8.18289981	     14.13726312	      6.56440507	     31.39382880	     42.47939656	      2.76622462	      2.94272538	      8.51397829	      4.37134833	     12.53751570	      2.01679287	      5.32233011	      1.69073131	     25.15265999	     25.15265999	      9.05741838	      9.05741838	     26.85618503	     26.85618503	      2.76307435	     50.99597937	     -9.56042239	      5.21997485	     -0.02578839	      1.48581788	     -2.76307435	    -50.99597937	      9.56042239	     -1.74637766	      0.02558040	     -0.48301696	     -3.31599387	     20.97615968	     -3.40468921	      0.94473225	     -0.02138609	     -1.00501789	      3.31599387	    -20.97615968	      3.40468921	      0.28075727	      0.00368718	     -0.29758878	     26.93519858	     87.27378973	     18.05880378	     -9.64258301	      0.62059278	     11.38967212	    -26.93519858	    -87.27378973	    -18.05880378	      3.02035661	     -0.78390003	     -0.72321668	     45.65531636	     88.31240135	     -1.09489168	      2.27315712	     -0.93078334	     19.39309050	    -45.65531636	    -88.31240135	      1.09489168	     -1.49354633	      0.74966422	     -1.49331737	      0.00000000	      0.00000000	      0.00000000	      0.00000000	      0.00000000	      0.00000000	      0.00000000	      0.00000000	      0.00000000	      0.00000000	      0.00000000	      0.00000000	      0.00000000	      0.00000000	      0.00000000	      0.00000000	      0.00000000	      0.00000000	      0.00000000	      0.00000000	      0.00000000	      0.00000000	      0.00000000	      0.00000000	      0.00000000	      0.00000000	      0.00000000	      0.00000000	      0.00000000	      0.00000000	      0.00000000	      0.00000000	      0.00000000	      0.00000000	      0.00000000	      0.00000000	      0.00000000	      0.00000000	      0.00000000	      0.00000000	      0.00000000	      0.00000000	      0.00000000	      0.00000000	      0.00000000	      0.00000000	      0.00000000	      0.00000000	      8.43088427	     64.72432313	      0.00000000	      0.00000000	      0.00000000	      7.38823310	     22.82283806	      2.74175271	      0.00000000	      5.13960125	      0.00000000	      0.00000000	      0.00000001	      0.00000000	    110.00000000	      0.00000000	      0.00000000
      0.50041348	      7.59572349	      5.69866774	      6.10038658	      2.67372483	      3.19494284	      3.21290827	      8.89609931	      4.08574629	      8.27286012	      7.40450346	      1.51825370	      5.64627192	      0.00000000	      2.93575606	      2.46821027	      4.01353987	      4.07107358	      2.25124477	      1.56018292	      3.67729544	      5.58835173	      4.17200789	     22.70728137	     13.03395733	      3.64728586	      2.86396236	      4.12868672	     10.96240516	      6.87805613	      7.00054196	      8.95394992	      4.64168420	      2.34507492	      8.50936648	     11.12272693	      2.67848964	      2.13784590	     15.73321214	      3.87064256	      7.53322930	     10.89201494	      8.32917333	      2.22901303	      7.59572349	      5.69866774	      6.10038658	      2.67372483	      3.19494284	      3.21290827	      8.81488420	      4.10883001	      7.74081720	      7.25705672	      1.52815741	      5.64627192	      0.00000000	      2.93575606	      2.46821027	      4.01353987	      4.11315013	      2.25124477	      1.56748219	      3.67729544	      5.58835173	      4.17200789	     22.70728137	     13.03395733	      3.64728586	      2.86396236	      4.12868672	     10.74604858	      6.63185748	      7.60814177	      8.18055629	     14.12913700	      6.56062594	     31.37993273	     42.47395230	      2.76329276	      2.94066474	      8.51114263	      4.36964964	     12.53343173	      2.01629502	      5.32120225	      1.69041081	     25.14599493	     25.14599493	      9.05480470	      9.05480470	     26.85383729	     26.85383729	      2.76307435	     50.99597937	     -9.56042239	      5.21997485	     -0.02578839	      1.48581788	     -2.76307435	    -50.99597937	      9.56042239	     -1.74637766	      0.02558040	     -0.48301696	     -3.31599387	     20.97615968	     -3.40468921	      0.94473225	     -0.02138609	     -1.00501789	      3.31599387	    -20.97615968	      3.40468921	      0.28075727	      0.00368718	     -0.29758878	     26.79560411	     86.96622171	     18.00888093	     -9.61362746	      0.61715490	     11.33056601	    -26.79560411	    -86.96622171	    -18.00888093	      3.00857304	     -0.77947141	     -0.71899728	     45.78101406	     88.56996110	     -1.03580007	      2.25407549	     -0.93386312	     19.44726166	    -45.78101406	    -88.56996110	      1.03580007	     -1.49712163	      0.75250958	     -1.49819986	      0.00000000	      0.00000000	      0.00000000	      0.00000000	      0.00000000	      0.00000000	      0.00000000	      0.00000000	      0.00000000	      0.00000000	      0.00000000	      0.00000000	      0.00000000	      0.00000000	      0.00000000	      0.00000000	      0.00000000	      0.00000000	      0.00000000	      0.00000000	      0.00000000	      0.00000000	      0.00000000	      0.00000000	      0.00000000	      0.00000000	      0.00000000	      0.00000000	      0.00000000	      0.00000000	      0.00000000	      0.00000000	      0.00000000	      0.00000000	      0.00000000	      0.00000000	      0.00000000	      0.00000000	      0.00000000	      0.00000000	      0.00000000	      0.00000000	      0.00000000	      0.00000000	      0.00000000	      0.00000000	      0.00000000	      0.00000000	      8.44302375	     64.75081044	      0.00000000	      0.00000000	      0.00000000	      7.42663912	     22.84766803	      2.75414565	      0.00000000	      5.16244873	      0.00000000	      0.00000000	      0.00000001	      0.00000000	    110.00000000	      0.00000000	      0.00000000
      0.50461032	      7.59308134	      5.69684768	      6.09841404	      2.67290710	      3.19405827	      3.21179295	      8.88994570	      4.08510372	      8.25145576	      7.40181819	      1.58719715	      5.64444756	      0.00000000	      2.93482529	      2.46740909	      4.01209672	      4.06858464	      2.25055189	      1.56042557	      3.67612192	      5.58656292	      4.17064796	     22.70398109	     13.03024578	      3.64614611	      2.86342883	      4.12656620	     10.94582731	      6.87768884	      6.99675617	      8.93191736	      4.68165701	      2.36480955	      8.57277756	     11.07893768	      2.69808580	      2.08490930	     15.75417165	      3.89863016	      7.61112764	     10.92056660	      8.38242416	      2.26024606	      7.59308134	      5.69684768	      6.09841404	      2.67290710	      3.19405827	      3.21179295	      8.81103598	      4.10741444	      7.73761521	      7.25478757	      1.52769218	      5.64444756	      0.00000000	      2.93482529	      2.46740909	      4.01209672	      4.11225758	      2.25055189	      1.56699670	      3.67612192	      5.58656292	      4.17064796	     22.70398109	     13.03024578	      3.64614611	      2.86342883	      4.12656620	     10.74169065	      6.62969101	      7.60560837	      8.17784609	     14.11971773	      6.55624538	     31.36385440	     42.46765446	      2.75978291	      2.93821834	      8.50786327	      4.36768490	     12.52870363	      2.01571926	      5.31997093	      1.69006191	     25.13828678	     25.13828678	      9.05178204	      9.05178204	     26.85112218	     26.85112218	      2.76307435	     50.99597937	     -9.56042239	      5.21997485	     -0.02578839	      1.48581788	     -2.76307435	    -50.99597937	      9.56042239	     -1.74637766	      0.02558040	     -0.48301696	     -3.31599387	     20.97615968	     -3.40468921	      0.94473225	     -0.02138609	     -1.00501789	      3.31599387	    -20.97615968	      3.40468921	      0.28075727	      0.00368718	     -0.29758878	     26.82062978	     86.64598763	     17.92640768	     -9.57107001	      0.61826136	     11.34104617	    -26.82062978	    -86.64598763	    -17.92640768	      2.99553855	     -0.78009412	     -0.72084510	     45.87281946	     88.82095089	     -1.08057785	      2.27895761	     -0.93617431	     19.48719717	    -45.87281946	    -88.82095089	      1.08057785	     -1.50475057	      0.75512886	     -1.50197628	      0.00000000	      0.00000000	      0.00000000	      0.00000000	      0.00000000	      0.00000000	      0.00000000	      0.00000000	      0.00000000	      0.00000000	      0.00000000	      0.00000000	      0.00000000	      0.00000000	      0.00000000	      0.00000000	      0.00000000	      0.00000000	      0.00000000	      0.00000000	      0.00000000	      0.00000000	      0.00000000	      0.00000000	      0.00000000	      0.00000000	      0.00000000	      0.00000000	      0.00000000	      0.00000000	      0.00000000	      0.00000000	      0.00000000	      0.00000000	      0.00000000	      0.00000000	      0.00000000	      0.00000000	      0.00000000	      0.00000000	      0.00000000	      0.00000000	      0.00000000	      0.00000000	      0.00000000	      0.00000000	      0.00000000	      0.00000000	      8.43568528	     64.75914262	      0.00000000	      0.00000000	      0.00000000	      7.42960125	     22.83600882	      2.72390539	      0.00000000	      5.14301162	      0.00000000	      0.00000000	      0.00000001	      0.00000000	    110.00000000	      0.00000000	      0.00000000
